<?xml version="1.0" encoding="UTF-8"?>
<svg id="Ebene_8" data-name="Ebene 8" xmlns="http://www.w3.org/2000/svg" xmlns:xlink="http://www.w3.org/1999/xlink" viewBox="0 0 512 512">
  <defs>
    <style>
      .cls-1 {
        fill: #0071bc;
      }

      .cls-2 {
        stroke: #b3b3b3;
        stroke-width: 2px;
      }

      .cls-2, .cls-3, .cls-4, .cls-5, .cls-6, .cls-7, .cls-8 {
        fill: none;
      }

      .cls-2, .cls-3, .cls-5, .cls-6, .cls-7, .cls-8 {
        stroke-miterlimit: 10;
      }

      .cls-9 {
        fill: #fff;
      }

      .cls-3 {
        stroke: #4d4d4d;
        stroke-width: 6px;
      }

      .cls-5 {
        stroke: gray;
        stroke-width: 4px;
      }

      .cls-6 {
        stroke: #666;
        stroke-width: 5px;
      }

      .cls-7 {
        stroke: #999;
        stroke-width: 3px;
      }

      .cls-8 {
        stroke: #333;
        stroke-width: 7px;
      }

      .cls-10 {
        clip-path: url(#clippath);
      }
    </style>
    <clipPath id="clippath">
      <rect class="cls-4" x="25" y="28" width="405" height="457"/>
    </clipPath>
  </defs>
  <rect class="cls-9" width="512" height="512"/>
  <g class="cls-10">
    <g>
      <path class="cls-2" d="M83.26,115.21c35.96,88.01,118.41,86.55,95.92,226.62-6.39,39.81,115.28,84.17,127.12,118.26l25.36,59.92"/>
      <path class="cls-7" d="M69.12,97.03c35.96,88.01,155.46,68.96,95.92,226.62-19.48,51.58,107.49,71.88,127.12,118.26l25.36,59.92"/>
      <path class="cls-5" d="M53.03,77.34c35.96,88.01,184.05,51.9,95.92,226.62-32.29,64.02,111.66,78.69,127.12,118.26l25.36,59.92"/>
      <path class="cls-6" d="M37.26,61.42c37.64,91.98,212.09,28.27,95.92,226.62-44.2,75.47,113.34,82.65,127.12,118.26l25.36,59.92"/>
      <path class="cls-3" d="M19.54,43.98c35.96,88.01,245.49,18.79,95.92,226.62-62.6,86.98,110.26,75.38,127.12,118.26l25.36,59.92"/>
      <path class="cls-8" d="M1.02,27.66c35.96,88.01,273.02,3.44,95.92,226.62-82.51,103.98,101.63,60.51,127.12,118.26l25.36,59.92"/>
      <path class="cls-3" d="M-20.26,10.94C15.7,98.96,225.23,29.74,75.66,237.56c-62.6,86.98,110.26,75.38,127.12,118.26l25.36,59.92"/>
      <path class="cls-6" d="M-42.35-4.64C-4.71,87.34,169.74,23.63,53.57,221.97c-44.2,75.47,113.34,82.65,127.12,118.26l25.36,59.92"/>
      <path class="cls-5" d="M-65.26-19.11C-29.3,68.91,118.79,32.79,30.66,207.51c-32.29,64.02,111.66,78.69,127.12,118.26l25.36,59.92"/>
      <path class="cls-7" d="M-88.98-32.45C-53.02,55.57,66.48,36.52,6.94,194.17c-19.48,51.58,107.49,71.88,127.12,118.26l25.36,59.92"/>
      <path class="cls-2" d="M-112.96-43.34C-77,44.67,5.45,43.21-17.04,183.27c-6.39,39.81,115.28,84.17,127.12,118.26l25.36,59.92"/>
    </g>
  </g>
  <g>
    <path class="cls-1" d="M204.5,319.46c0-3.69.97-6.29,2.91-7.8,1.94-1.51,4.3-2.26,7.09-2.26s5.17.75,7.15,2.26c1.99,1.51,2.98,4.11,2.98,7.8s-.99,6.2-2.98,7.8c-1.99,1.6-4.37,2.4-7.15,2.4s-5.15-.8-7.09-2.4c-1.94-1.6-2.91-4.2-2.91-7.8Z"/>
    <path class="cls-1" d="M330.4,327.84h-20.2l-49.02-78.8h-.62c.18,2.66.35,5.47.51,8.44.16,2.97.3,6.03.41,9.18.11,3.15.22,6.35.31,9.59v51.59h-14.92v-98.72h20.06l48.95,78.26h.48c-.09-2.3-.21-4.93-.34-7.9-.14-2.97-.26-6.04-.38-9.22-.11-3.17-.19-6.25-.24-9.22v-51.92h14.99v98.72Z"/>
    <path class="cls-1" d="M413.37,327.84h-56.68v-98.72h56.68v13.64h-40.25v26.81h37.72v13.57h-37.72v30.99h40.25v13.71Z"/>
    <path class="cls-1" d="M469.65,327.84h-16.5v-84.94h-29.3v-13.77h75.03v13.77h-29.23v84.94Z"/>
  </g>
</svg>